<?xml version="1.0" encoding="UTF-8"?>
<svg xmlns="http://www.w3.org/2000/svg" xmlns:xlink="http://www.w3.org/1999/xlink" version="1.1" id="Capa_1" x="0px" y="0px" viewBox="0 0 512.013 512.013" style="enable-background:new 0 0 512.013 512.013;" xml:space="preserve" width="512" height="512">
<g>
	<path style="fill:none;stroke:#000000;stroke-width:20;stroke-linecap:round;stroke-linejoin:round;stroke-miterlimit:10;" d="&#10;&#9;&#9;M10.013,216.007v-181c0-13.807,11.193-25,25-25h442c13.807,0,25,11.193,25,25v442c0,13.807-11.193,25-25,25h-442&#10;&#9;&#9;c-13.807,0-25-11.193-25-25v-181"/>
	
		<line style="fill:none;stroke:#000000;stroke-width:20;stroke-linecap:round;stroke-linejoin:round;stroke-miterlimit:10;" x1="10" y1="256.007" x2="10" y2="256.007"/>
	
		<rect x="63.513" y="63.507" style="fill:none;stroke:#000000;stroke-width:20;stroke-linecap:round;stroke-linejoin:round;stroke-miterlimit:10;" width="385" height="385"/>
	
		<line style="fill:none;stroke:#000000;stroke-width:20;stroke-linecap:round;stroke-linejoin:round;stroke-miterlimit:10;" x1="448.513" y1="63.507" x2="494.691" y2="17.329"/>
	
		<line style="fill:none;stroke:#000000;stroke-width:20;stroke-linecap:round;stroke-linejoin:round;stroke-miterlimit:10;" x1="63.513" y1="63.507" x2="17.336" y2="17.329"/>
	
		<line style="fill:none;stroke:#000000;stroke-width:20;stroke-linecap:round;stroke-linejoin:round;stroke-miterlimit:10;" x1="448.513" y1="448.507" x2="494.691" y2="494.684"/>
	
		<line style="fill:none;stroke:#000000;stroke-width:20;stroke-linecap:round;stroke-linejoin:round;stroke-miterlimit:10;" x1="63.513" y1="448.507" x2="17.336" y2="494.684"/>
	<path style="fill:none;stroke:#000000;stroke-width:20;stroke-linecap:round;stroke-linejoin:round;stroke-miterlimit:10;" d="&#10;&#9;&#9;M148.084,279.365l100.858-100.858c3.905-3.905,10.237-3.905,14.142,0l100.858,100.858c6.3,6.3,1.838,17.071-7.071,17.071H155.155&#10;&#9;&#9;C146.246,296.436,141.785,285.664,148.084,279.365z"/>
</g>















</svg>
