<?xml version="1.0" encoding="UTF-8" standalone="no"?>
<!-- Created with Inkscape (http://www.inkscape.org/) -->

<svg
   version="1.1"
   id="svg1299"
   xml:space="preserve"
   width="682.66669"
   height="682.66669"
   viewBox="0 0 682.66669 682.66669"
   xmlns="http://www.w3.org/2000/svg"
   xmlns:svg="http://www.w3.org/2000/svg"><defs
     id="defs1303"><clipPath
       clipPathUnits="userSpaceOnUse"
       id="clipPath1313"><path
         d="M 0,512 H 512 V 0 H 0 Z"
         id="path1311" /></clipPath></defs><g
     id="g1305"
     transform="matrix(1.3333333,0,0,-1.3333333,0,682.66667)"><g
       id="g1307"><g
         id="g1309"
         clip-path="url(#clipPath1313)"><g
           id="g1315"
           transform="translate(354,256)"><path
             d="m 0,0 h -196.667 m 118,-78.667 L 0,0 -78.667,78.667 M 94.48,200.853 102.853,192.48 C 125.357,169.977 138,139.454 138,107.628 v -215.256 c 0,-31.826 -12.643,-62.349 -35.147,-84.852 l -8.373,-8.373 C 71.977,-223.357 41.454,-236 9.628,-236 h -215.256 c -31.826,0 -62.349,12.643 -84.852,35.147 l -8.373,8.373 c -22.504,22.503 -35.147,53.026 -35.147,84.852 v 215.256 c 0,31.826 12.643,62.349 35.147,84.852 l 8.373,8.373 c 22.503,22.504 53.026,35.147 84.852,35.147 H 9.628 c 31.826,0 62.349,-12.643 84.852,-35.147 z"
             style="fill:none;stroke:#000000;stroke-width:40;stroke-linecap:round;stroke-linejoin:round;stroke-miterlimit:10;stroke-dasharray:none;stroke-opacity:1"
             id="path1317" /></g></g></g></g></svg>
