<svg id="Layer_1" enable-background="new 0 0 512 512" height="512" viewBox="0 0 512 512" width="512" xmlns="http://www.w3.org/2000/svg"><path d="m415.192 321.808c5.077 5.077 5.077 13.308 0 18.385-2.538 2.537-5.865 3.807-9.192 3.807s-6.654-1.27-9.192-3.808l-140.808-140.807-140.808 140.807c-5.077 5.076-13.308 5.076-18.385 0-5.077-5.077-5.077-13.308 0-18.385l150-150c5.077-5.076 13.308-5.076 18.385 0zm96.808-233.308v335c0 48.799-39.701 88.5-88.5 88.5h-335c-48.799 0-88.5-39.701-88.5-88.5v-335c0-48.799 39.701-88.5 88.5-88.5h335c48.799 0 88.5 39.701 88.5 88.5zm-26 0c0-34.463-28.038-62.5-62.5-62.5h-335c-34.462 0-62.5 28.037-62.5 62.5v335c0 34.463 28.038 62.5 62.5 62.5h335c34.462 0 62.5-28.037 62.5-62.5z"/></svg>