<svg xmlns="http://www.w3.org/2000/svg" version="1.1" xmlns:xlink="http://www.w3.org/1999/xlink" xmlns:svgjs="http://svgjs.com/svgjs" width="512" height="512" x="0" y="0" viewBox="0 0 60 60" style="enable-background:new 0 0 512 512" xml:space="preserve" class=""><g><g fill="none" fill-rule="evenodd"><path fill="#bf0000" d="m47.71 12.47-.29.39a2 2 0 0 1-2.79.43l-.2-.14-7.24-5.31-.2-.15a2.01 2.01 0 0 1-.43-2.8l.29-.39a2 2 0 0 1 2.8-.43l.2.14 7.43 5.46a2.009 2.009 0 0 1 .43 2.8z" data-original="#549414" class=""></path><path fill="#bf0000" d="M38.47 24.58a6.689 6.689 0 0 0-.75 3.54l.06 1.04.23 3.63a6.076 6.076 0 0 1-1.17 3.99L21.56 57.62a3.372 3.372 0 0 1-4.71.73L2.38 47.72a3.372 3.372 0 0 1-.73-4.71l15.28-20.85a6.216 6.216 0 0 1 3.47-2.31l4.53-1.13a6.633 6.633 0 0 0 3.14-1.78l9.12-9.1 7.24 5.31z" data-original="#60a917" class=""></path><path fill="#bf0000" d="m44.43 13.15-7.24-5.31-1.271 1.268 5.511 4.042-5.96 11.43a6.689 6.689 0 0 0-.75 3.54l.06 1.04.23 3.63a6.076 6.076 0 0 1-1.17 3.99L18.56 57.62c-.321.432-.742.78-1.227 1.014a3.367 3.367 0 0 0 4.227-1.014l15.28-20.84a6.076 6.076 0 0 0 1.17-3.99l-.23-3.63-.06-1.04a6.689 6.689 0 0 1 .75-3.54z" data-original="#549414" class=""></path><path fill="#bf0000" d="m37.2 7.83-.01.01" data-original="#60a917" class=""></path><path fill="#ffe0b2" d="m58.45 14.6-8.04 18.71a3.361 3.361 0 0 1-5.08 1.38l-7.54-5.53h-.01l-.06-1.04a6.689 6.689 0 0 1 .75-3.54l5.96-11.43.2.14a2 2 0 0 0 2.79-.43l.29-.39a2.009 2.009 0 0 0-.43-2.8l-7.43-5.46a7.836 7.836 0 0 1 10.97-1.68l5.43 3.98a6.728 6.728 0 0 1 2.2 8.09z" data-original="#ffe0b2" class=""></path><path fill="#dfc49c" d="m56.25 6.51-5.43-3.98a7.821 7.821 0 0 0-6.148-1.373A7.818 7.818 0 0 1 47.82 2.53l5.43 3.98a6.728 6.728 0 0 1 2.2 8.09l-8.04 18.71a3.313 3.313 0 0 1-1.574 1.669 3.349 3.349 0 0 0 4.574-1.669l8.04-18.71a6.728 6.728 0 0 0-2.2-8.09z" data-original="#dfc49c" class=""></path><path fill="#ff9801" d="M2.977 41.204 16.93 22.206 36.83 36.822 22.876 55.82z" data-original="#ff9801" class=""></path><path fill="#f57c00" d="M34.617 35.72 20.934 54.38l1.95 1.432 13.938-19.009z" data-original="#f57c00"></path><path fill="#ffdc00" d="M15.589 44.885a5.3 5.3 0 0 0 7.841-1.2c3.982-5.431-.118-11.226-.118-11.226-3.077 6.094-6.937 1.869-9.592 5.49-1.327 1.806-.845 4.943 1.869 6.936z" data-original="#ffdc00"></path><g fill="#000" fill-rule="nonzero"><path d="m56.844 5.7-5.428-3.98a8.843 8.843 0 0 0-11.8 1.2 2.975 2.975 0 0 0-3.566.987l-.29.4a3 3 0 0 0 .011 3.539l-8.4 8.4a5.7 5.7 0 0 1-2.676 1.512l-4.526 1.132a7.158 7.158 0 0 0-4.038 2.693L.846 42.42a4.363 4.363 0 0 0 .943 6.1l14.472 10.633a4.307 4.307 0 0 0 3.238.795 4.339 4.339 0 0 0 2.862-1.739l1.319-1.8.01-.009.007-.015L37.624 37.4v-.007l.01-.013a7.1 7.1 0 0 0 1.372-4.653l-.094-1.494 5.824 4.267a4.357 4.357 0 0 0 6.588-1.8L59.366 15a7.684 7.684 0 0 0-2.522-9.3zm-19.473-.22.29-.4a1 1 0 0 1 .807-.411c.212 0 .418.067.589.193l7.434 5.458.2.144a1 1 0 0 1 .214 1.4l-.289.4a1 1 0 0 1-.655.4.986.986 0 0 1-.741-.182l-7.632-5.6a1 1 0 0 1-.217-1.398zM20.642 20.822l4.529-1.133a7.69 7.69 0 0 0 3.61-2.038l8.51-8.5 5.859 4.3-5.561 10.663a7.69 7.69 0 0 0-.864 4.064l.292 4.67a5.085 5.085 0 0 1-.49 2.5L18.4 22.036a5.117 5.117 0 0 1 2.242-1.214zm2.025 33.59L4.378 40.985l12.753-17.4 18.293 13.43zM19.2 57.973a2.334 2.334 0 0 1-1.749-.43L2.971 46.91a2.359 2.359 0 0 1-.944-1.555 2.334 2.334 0 0 1 .431-1.755l.742-1 18.284 13.424-.736 1c-.368.51-.926.852-1.548.949zM57.53 14.2l-8.045 18.718a2.336 2.336 0 0 1-1.54 1.346 2.37 2.37 0 0 1-2.026-.376l-1.693-1.244 2.267-4.233a1 1 0 1 0-1.763-.943l-2.13 3.981-3.841-2.82-.036-.578a5.688 5.688 0 0 1 .64-3.01l5.486-10.522a2.967 2.967 0 0 0 1.417.125 2.99 2.99 0 0 0 1.963-1.191l.29-.4a3 3 0 0 0 0-3.525 2.351 2.351 0 0 1 2.681.077l.385.283a2.358 2.358 0 0 1 .7 3L46.8 23.428a1 1 0 0 0 1.773.924l5.486-10.533a4.347 4.347 0 0 0-1.291-5.541L52.38 8a4.333 4.333 0 0 0-5.41.206l-5.662-4.161a6.828 6.828 0 0 1 8.924-.714l5.428 3.984a5.7 5.7 0 0 1 1.87 6.885z" fill="#000000" data-original="#000000" class=""></path><path d="M24.128 31.877a1 1 0 0 0-1.709.123c-1.487 2.946-3.023 3.054-4.8 3.178-1.537.107-3.28.229-4.7 2.172-1.56 2.127-1.207 5.92 2.083 8.336a6.787 6.787 0 0 0 4.03 1.416c.301 0 .602-.023.9-.069a6.573 6.573 0 0 0 4.305-2.765c4.363-5.939-.064-12.328-.109-12.391zm-1.5 11.213a4.626 4.626 0 0 1-3 1.971 4.644 4.644 0 0 1-3.446-.982c-2.3-1.685-2.646-4.19-1.654-5.543.875-1.194 1.863-1.264 3.23-1.359a6.417 6.417 0 0 0 5.516-2.728 8.383 8.383 0 0 1-.65 8.641z" fill="#000000" data-original="#000000" class=""></path></g></g></g></svg>