<svg id="svg8" height="512" viewBox="0 0 16.933333 16.933333" width="512" xmlns="http://www.w3.org/2000/svg" xmlns:svg="http://www.w3.org/2000/svg"><g id="layer2"><path id="path3366" d="m2.6463519.52916602c-.591042 0-1.058334.47710998-1.058334 1.05884998v4.40593c-.38114.1255099-.63911599.3657499-.80305094.6351-.192353.3160501-.255799.66274-.255799.9529199v2.2520499c0 .4684502.213011 1.0441112.41237795 1.6035212.09968.27971.19754699.55086.26923399.77722.07169.22635.111622.39636.111622.48421v.99683c-.1605849.14551-.26355.35325-.26355.59118v1.32447c0 .44136.357561.79272.792716.79272h3.7052c.4351549 0 .792717-.34587.792717-.79272v-1.32447c0-.31322-.1813451-.59033-.455786-.71882.04458-.18132.1389559-.42306.242879-.71468.1215649-.34113.24863-.74685.2868038-1.21078h3.3372641l.7069342 1.41852c-.246001.13524-.412895.39101-.412895.6966v1.32446c0 .43516.350327.79272.792716.79272h3.705201c.442389 0 .793233-.35756.793233-.79272v-1.32446c0-.3176-.18621-.59309-.463021-.72141l.397908-1.39371h.06511c.58174 0 1.058333-.47091 1.058333-1.058851v-8.99583c0-.58174-.465224-1.05884998-1.058333-1.05884998zm0 .52967998h12.6994831c.291533 0 .529166.23143.529166.52917v8.99583c0 .297741-.2397.529681-.529166.529681v-8.732801c0-.43516-.350763-.79271-.793233-.79271h-11.1130172c-.4444629 0-.7932329.35755-.7932329.79271v4.49792c-.193284 0-.372683.0505-.529167.1421101v-5.4327401c0-.29774.2366-.52917.529167-.52917zm11.9062501 1.05833c.142385 0 .263549.1124.263549.26355v6.1314098c-.08296-.0298-.170887-.0455-.263549-.0455-.1319 0-.197854.020201-.293523.0558-.0497-.2451502-.329661-.5872601-.764811-.5849799-.197175.00101-.320485.0649-.390157.1017997-.09238-.1483-.306415-.3653499-.668693-.3653499-.117864 0-.195175.02-.265617.0444v-.8397396h1.857768c.352864 0 .352864-.5291701 0-.5291701h-1.857768v-.7927099c0-.0935-.01423-.1819802-.04444-.2656203h.6196c.107949.3062902.398137.5296802.747758.5296802.444463 0 .7953-.35859.7953-.7937499 0-.4351602-.354292-.79375-.7953-.79375-.346307 0-.637546.2226598-.746725.5281398h-4.5449423c-.3531219 0-.3531219.5296799 0 .5296799h2.4272423c-.03025.0836-.04444.1721602-.04444.2656203v.7927099h-.575676c-.1095288-.3056401-.3961081-.5276101-.7487911-.5276101-.352684 0-.6381221.22197-.747242.5276101h-.3069572c-.352865 0-.352865.5291701 0 .5291701h.3059242c.1080188.3062197.392452.5286499.748275.5286499.355822 0 .6413973-.2224302.7498251-.5286499h.574642v2.1895299l-.312126-.5426001c-.254228-.4402798-.8178422-.5967499-1.2660731-.33797-.4534712.26181-.56409.8126201-.3457151 1.25006l.3079919.6170101h-4.6989377c-.192881-.2457802-.3823682-.43825-.5637901-.67076v-1.4464202c0-.3882098-.208132-.7289699-.5291671-.9172598v-4.63951c0-.14598.112395-.26355.263549-.26351zm-5.2921843.52865c-.3470619 0-.6406888.22369-.7493079.5301999h-.3090249c-.352865 0-.352865.5291701 0 .5291701h.3100578c.1084252.3054101.3993042.52813.748275.52813.3489712 0 .6393335-.2227199.7482753-.52813h4.018876c.352865 0 .352865-.5291701 0-.5291701h-4.018876c-.1050008-.3054699-.4012121-.5301999-.7482753-.5301999zm-3.8736647.32657-1.5880173 1.3224001c-.2708359.2266799.0692.6328598.3400312.4061698l.09353-.078v.9332802c-.351726.0009998-.35145.5291698.001.5291698h2.6458338c.352865 0 .3526063-.5291698-.0005291-.5291698v-.9343102l.09509.0791c.270836.22728.611406-.1795401.34003-.4061701l-1.5880027-1.3223998c-.04701-.0397-.1063969-.0619-.1694825-.062535-.0630845.0006238-.1224776.022765-.1694834.062465zm3.8736647.2026c.1438482 0 .2656171.1123901.2656171.26355s-.1206619.2656199-.2656171.2656199c-.1449538 0-.2635498-.1144698-.2635498-.2656199 0-.1511599.119703-.26355.2635498-.26355zm-3.7041658.3451999.793233.66094v1.3751102h-.5291672v-.5291701c-.0077-.3450299-.5215109-.3450299-.5291658 0v.5291701h-.5296839v-1.3740802zm7.9364661 1.2423002c.143848 0 .266134.1134298.266134.2645799 0 .1511599-.125314.2656199-.266134.2656199s-.26355-.11446-.26355-.2656199c0-.1511501.119702-.2645799.26355-.2645799zm-2.115633.5286499c.141854 0 .265617.1144601.265617.26562v3.9687499c0 .34671.527099.3605101.527099 0v-1.0588501c0-.1511599.126864-.2656199.265617-.2656199s.26355.11446.26355.2656199v1.0588501c0 .35286.529683.35286.529683 0v-.7952999c0-.1511602.122724-.2635502.265617-.2635502s.263551.11239.26355.2635502v.7952999c0 .35286.529167.35286.529167 0v-.26562c.000001-.1511599.121769-.2635498.265617-.2635498.143847 0 .263549.1123899.263549.2635498v2.0799811l-.464571 1.62522h-3.340364l-1.8784391-3.7641111c-.108976-.2183-.04387-.4521599.136943-.55656.1808118-.10439.4257009-.0557.5426033.1467601l.8066688 1.39423c.134684.23482.493726.13996.494543-.13074v-4.49791c0-.1511599.121696-.26562.26355-.26562zm-2.1177002 1.0598801c.1438481 0 .265617.1123997.265617.2635498 0 .1511599-.126864.26562-.265617.26562-.1387539 0-.2635499-.1144601-.2635499-.26562 0-.1511501.1197028-.2635498.2635499-.2635498zm-7.6713669 3.1744898c.0077.3450301.521512.3450301.529167 0v-1.5880199c0-.2977401.241767-.5291701.529167-.5291701.287399 0 .529683.23143.529683.5291701v1.50999c0 .092.04042.15567.05168.1751799.1393439.21415.426384.5224901.5829099.7069301.212798.25076.4227131.561291.4227131.657331v.91932c-.008.36069.5371658.36069.529167 0v-.26355h1.1306799c-.03658.37576-.1428589.71899-.2547649 1.03301-.104819.29414-.2236351.58059-.2692339.81856h-3.5176151v-.7953c0-.19017-.0598-.40083-.136942-.64441-.07714-.24357-.176165-.51768-.274918-.79478-.197508-.554201-.380855-1.143911-.380855-1.4257612v-2.2520499c0-.20877.04998-.47043.17725-.67955.08179-.1343898.202554-.25576.351914-.3358999zm3.0551109 1.0583301h4.5888671l.2640669.529681h-4.7335609v-.14107c0-.15598-.08431-.327871-.1193731-.388611zm6.2042722 2.910421h3.705201c.142881 0 .263549.1124.263549.26355v1.32446c0 .15115-.121701.26355-.263549.26355h-3.705201c-.143915 0-.263549-.1124-.263549-.26355v-1.32446c0-.15115.119634-.26355.263549-.26355zm-8.9958331.52916h3.7052c.143915 0 .2635498.1124.2635498.26355v1.32447c0 .15115-.1226309.26355-.2635498.26355h-3.7052c-.147016 0-.26355-.1186-.26355-.26355v-1.32447c0-.15115.118602-.26355.26355-.26355zm9.5255171.26407c-.146126 0-.264584.11846-.264584.26458 0 .14613.118458.26459.264584.26459.146125 0 .264583-.11846.264583-.26459 0-.14612-.118458-.26458-.264583-.26458zm-8.9958331.52917c-.146126 0-.264584.11845-.264584.26458s.118458.26458.264584.26458c.146125 0 .264584-.11845.264584-.26458s-.118458-.26458-.264584-.26458z" font-variant-ligatures="normal" font-variant-position="normal" font-variant-caps="normal" font-variant-numeric="normal" font-variant-alternates="normal" font-feature-settings="normal" text-indent="0" text-align="start" text-decoration-line="none" text-decoration-style="solid" text-decoration-color="rgb(0,0,0)" text-transform="none" text-orientation="mixed" white-space="normal" shape-padding="0" isolation="auto" mix-blend-mode="normal" solid-color="rgb(0,0,0)" solid-opacity="1" vector-effect="none"/></g></svg>