<svg height="468pt" viewBox="0 -75 468.3723 468" width="468pt" xmlns="http://www.w3.org/2000/svg"><path d="m418.382812 45.378906c-13.140624-23.140625-61.535156-41.109375-79.507812-44.703125-8.15625-1.65625-16.589844.9375-22.515625 6.867188l-31.21875 31.21875c-3.695313 3.695312-8.8125 5.8125-14.03125 5.8125h-73.84375c-5.21875 0-10.335937-2.117188-14.03125-5.8125l-31.214844-31.21875c-5.929687-5.9375-14.351562-8.5-22.527343-6.867188-17.964844 3.59375-66.359376 21.5625-79.5 44.710938-8.558594 15.078125-74.449219 167.601562-40.191407 238.171875 9.589844 19.757812 25.851563 31.5 48.332031 34.914062 2.453126.367188 5-.429687 6.792969-2.1875 12.300781-12.03125 24.460938-26.507812 36.21875-40.507812 9.367188-11.15625 18.214844-21.6875 25.648438-29.101563 6.1875-6.171875 14.421875-9.570312 23.183593-9.570312h168.421876c8.761718 0 16.996093 3.398437 23.183593 9.570312 7.433594 7.414063 16.28125 17.945313 25.648438 29.101563 11.757812 14 23.917969 28.476562 36.21875 40.507812 1.507812 1.476563 3.519531 2.28125 5.59375 2.28125.398437 0 .800781-.03125 1.199219-.09375 22.480468-3.414062 38.742187-15.15625 48.332031-34.914062 34.257812-70.570313-31.632813-223.09375-40.191407-238.179688zm25.796876 231.195313c-6.691407 13.789062-17.335938 22.117187-32.457032 25.375-10.789062-10.921875-21.679687-23.890625-32.242187-36.460938-9.597657-11.429687-18.667969-22.226562-26.601563-30.140625-9.207031-9.1875-21.453125-14.242187-34.480468-14.242187h-168.421876c-13.027343 0-25.273437 5.054687-34.480468 14.242187-7.933594 7.914063-17.003906 18.710938-26.601563 30.140625-10.5625 12.570313-21.453125 25.539063-32.242187 36.460938-15.121094-3.257813-25.765625-11.585938-32.457032-25.375-29.191406-60.125 26.167969-199.429688 39.710938-223.289063 9.058594-15.960937 50.222656-33.21875 68.71875-36.921875 2.917969-.554687 5.9375.351563 8.078125 2.492188l31.21875 31.21875c6.777344 6.773437 15.777344 10.5 25.34375 10.5h73.84375c9.566406 0 18.566406-3.726563 25.34375-10.5l31.222656-31.21875c2.136719-2.132813 5.152344-3.046875 8.066407-2.492188 18.503906 3.703125 59.667968 20.960938 68.726562 36.914063 13.542969 23.867187 68.902344 163.171875 39.710938 223.296875zm0 0"/><path d="m165.027344 86.902344c0-26.101563-21.238282-47.34375-47.339844-47.34375-26.105469 0-47.34375 21.242187-47.34375 47.34375 0 26.101562 21.238281 47.34375 47.34375 47.34375 26.101562 0 47.339844-21.242188 47.339844-47.34375zm-47.339844 31.34375c-17.28125 0-31.34375-14.0625-31.34375-31.34375s14.0625-31.34375 31.34375-31.34375 31.339844 14.0625 31.339844 31.34375-14.058594 31.34375-31.339844 31.34375zm0 0"/><path d="m285.175781 115.652344c-26.105469 0-47.34375 21.242187-47.34375 47.34375 0 26.101562 21.238281 47.34375 47.34375 47.34375 26.101563 0 47.339844-21.242188 47.339844-47.34375 0-26.101563-21.238281-47.34375-47.339844-47.34375zm0 78.6875c-17.28125 0-31.34375-14.0625-31.34375-31.34375s14.0625-31.34375 31.34375-31.34375 31.339844 14.0625 31.339844 31.34375-14.058594 31.34375-31.339844 31.34375zm0 0"/><path d="m351.535156 96.285156c-11.089844 0-20.113281 9.023438-20.113281 20.109375 0 11.09375 9.023437 20.117188 20.113281 20.117188s20.113282-9.023438 20.113282-20.117188c0-11.085937-9.023438-20.109375-20.113282-20.109375zm0 24.226563c-2.269531 0-4.113281-1.84375-4.113281-4.117188 0-2.265625 1.84375-4.109375 4.113281-4.109375 2.269532 0 4.113282 1.84375 4.113282 4.109375 0 2.273438-1.84375 4.117188-4.113282 4.117188zm0 0"/><path d="m351.535156 77.527344c11.089844 0 20.113282-9.023438 20.113282-20.117188 0-11.085937-9.023438-20.109375-20.113282-20.109375s-20.113281 9.023438-20.113281 20.109375c0 11.09375 9.023437 20.117188 20.113281 20.117188zm0-24.226563c2.269532 0 4.113282 1.84375 4.113282 4.109375 0 2.273438-1.84375 4.117188-4.113282 4.117188-2.269531 0-4.113281-1.84375-4.113281-4.117188 0-2.265625 1.84375-4.109375 4.113281-4.109375zm0 0"/><path d="m381.027344 66.792969c-11.089844 0-20.113282 9.023437-20.113282 20.109375 0 11.09375 9.023438 20.117187 20.113282 20.117187s20.113281-9.023437 20.113281-20.117187c0-11.085938-9.023437-20.109375-20.113281-20.109375zm0 24.226562c-2.269532 0-4.113282-1.84375-4.113282-4.117187 0-2.265625 1.84375-4.109375 4.113282-4.109375 2.269531 0 4.113281 1.84375 4.113281 4.109375 0 2.273437-1.84375 4.117187-4.113281 4.117187zm0 0"/><path d="m322.042969 107.019531c11.089843 0 20.113281-9.023437 20.113281-20.117187 0-11.085938-9.023438-20.109375-20.113281-20.109375-11.089844 0-20.113281 9.023437-20.113281 20.109375 0 11.09375 9.023437 20.117187 20.113281 20.117187zm0-24.226562c2.269531 0 4.113281 1.84375 4.113281 4.109375 0 2.273437-1.84375 4.117187-4.113281 4.117187s-4.113281-1.84375-4.113281-4.117187c0-2.265625 1.84375-4.109375 4.113281-4.109375zm0 0"/><path d="m192.054688 100.167969c7.316406 0 13.265624-5.953125 13.265624-13.265625s-5.949218-13.265625-13.265624-13.265625c-7.316407 0-13.269532 5.953125-13.269532 13.265625s5.953125 13.265625 13.269532 13.265625zm0-16c1.503906 0 2.730468 1.226562 2.730468 2.734375 0 1.507812-1.226562 2.734375-2.730468 2.734375-1.507813 0-2.734376-1.226563-2.734376-2.734375 0-1.507813 1.226563-2.734375 2.734376-2.734375zm0 0"/><path d="m276.320312 100.167969c7.316407 0 13.269532-5.953125 13.269532-13.265625s-5.953125-13.265625-13.269532-13.265625c-7.316406 0-13.265624 5.953125-13.265624 13.265625s5.949218 13.265625 13.265624 13.265625zm0-16c1.507813 0 2.734376 1.226562 2.734376 2.734375 0 1.507812-1.226563 2.734375-2.734376 2.734375-1.503906 0-2.730468-1.226563-2.730468-2.734375 0-1.507813 1.226562-2.734375 2.730468-2.734375zm0 0"/><path d="m218.21875 143.660156h-15.257812v-15.257812c0-3.445313-2.203126-6.5-5.46875-7.585938-8.710938-2.90625-19.113282-2.875-27.730469 0-3.265625 1.085938-5.46875 4.140625-5.46875 7.585938v15.257812h-15.257813c-3.445312 0-6.503906 2.203125-7.589844 5.476563-1.445312 4.34375-2.179687 8.992187-2.179687 13.820312 0 4.890625.734375 9.5625 2.179687 13.90625 1.089844 3.265625 4.144532 5.46875 7.589844 5.46875h15.257813v15.257813c0 3.445312 2.203125 6.5 5.46875 7.585937 4.347656 1.453125 9.027343 2.1875 13.90625 2.1875 4.824219 0 9.476562-.734375 13.824219-2.1875 3.265624-1.085937 5.46875-4.140625 5.46875-7.585937v-15.257813h15.257812c3.445312 0 6.5-2.203125 7.589844-5.46875 1.445312-4.34375 2.179687-9.015625 2.179687-13.90625 0-4.828125-.734375-9.476562-2.179687-13.820312-1.085938-3.273438-4.144532-5.476563-7.589844-5.476563zm-6.414062 22.671875h-16.84375c-4.417969 0-8 3.578125-8 8v16.851563c-2.171876.234375-4.480469.242187-6.667969-.007813v-16.84375c0-4.421875-3.582031-8-8-8h-16.84375c-.121094-1.109375-.183594-2.234375-.183594-3.375 0-1.117187.058594-2.21875.179687-3.296875h16.847657c4.417969 0 8-3.578125 8-8v-16.835937c2.1875-.25 4.496093-.25 6.667969-.007813v16.84375c0 4.421875 3.582031 8 8 8h16.847656c.121094 1.078125.179687 2.179688.179687 3.296875 0 1.140625-.0625 2.265625-.183593 3.375zm0 0"/></svg>