<svg xmlns="http://www.w3.org/2000/svg" version="1.1" xmlns:xlink="http://www.w3.org/1999/xlink" xmlns:svgjs="http://svgjs.com/svgjs" width="512" height="512" x="0" y="0" viewBox="0 0 512 512" style="enable-background:new 0 0 512 512" xml:space="preserve" class=""><g><path fill="#000000" d="M451.238 9.664H60.762C27.257 9.664 0 36.921 0 70.425v371.15c0 33.503 27.257 60.761 60.762 60.761h390.476c33.505 0 60.762-27.257 60.762-60.761V70.425c0-33.504-27.257-60.761-60.762-60.761zM478.5 441.575c0 15.032-12.23 27.261-27.262 27.261H60.762c-15.032 0-27.262-12.229-27.262-27.261V70.425c0-15.032 12.23-27.261 27.262-27.261h390.476c15.032 0 27.262 12.229 27.262 27.261zM343.054 143.681l-67.511 112.318 67.511 112.318c4.766 7.929 2.201 18.219-5.727 22.985a16.667 16.667 0 0 1-8.613 2.396c-5.685 0-11.23-2.895-14.372-8.123L256 288.513l-58.341 97.062c-3.142 5.227-8.687 8.123-14.372 8.123-2.938 0-5.912-.772-8.613-2.396-7.929-4.766-10.493-15.056-5.727-22.985l67.511-112.318-67.511-112.318c-4.766-7.928-2.201-18.219 5.727-22.985 7.928-4.767 18.22-2.203 22.985 5.727L256 223.485l58.341-97.062c4.766-7.928 15.058-10.493 22.985-5.727 7.929 4.766 10.494 15.057 5.728 22.985z" data-original="#fe544b" class=""></path></g></svg>