<svg xmlns="http://www.w3.org/2000/svg" version="1.1" xmlns:xlink="http://www.w3.org/1999/xlink" xmlns:svgjs="http://svgjs.com/svgjs" width="512" height="512" x="0" y="0" viewBox="0 0 512 512" style="enable-background:new 0 0 512 512" xml:space="preserve" class=""><g><path fill="#000000" d="M451.239 9.664H60.761C27.257 9.664 0 36.921 0 70.425v371.151c0 33.503 27.257 60.761 60.761 60.761h390.477c33.504 0 60.761-27.257 60.761-60.761V70.425c.001-33.504-27.256-60.761-60.76-60.761zM478.5 441.575c0 15.032-12.23 27.261-27.261 27.261H60.761c-15.032 0-27.261-12.229-27.261-27.261V70.425c0-15.032 12.23-27.261 27.261-27.261h390.477c15.032 0 27.261 12.229 27.261 27.261v371.15zM357.383 135.052v241.66c.006.442-.006.882-.034 1.32a16.641 16.641 0 0 1-1.859 6.658 16.638 16.638 0 0 1-4.394 5.338 16.717 16.717 0 0 1-5.508 2.924 16.723 16.723 0 0 1-6.046.709 16.64 16.64 0 0 1-6.602-1.833 16.667 16.667 0 0 1-5.388-4.42c-.272-.34-.531-.689-.776-1.05L256 285.187l-70.772 101.168c-.252.371-.52.732-.801 1.082a16.635 16.635 0 0 1-5.267 4.341 16.627 16.627 0 0 1-7.807 1.92c-1.719 0-3.447-.263-5.119-.803a16.724 16.724 0 0 1-5.334-2.871 16.668 16.668 0 0 1-4.392-5.341 16.658 16.658 0 0 1-1.855-6.643 16.795 16.795 0 0 1-.035-1.328v-241.66c0-9.25 7.499-16.75 16.75-16.75s16.75 7.499 16.75 16.75v188.729l54.158-77.417a16.75 16.75 0 0 1 27.45 0l54.157 77.417V135.052c0-9.25 7.499-16.75 16.75-16.75s16.75 7.499 16.75 16.75z" data-original="#1fb1c9" class=""></path></g></svg>