<svg xmlns="http://www.w3.org/2000/svg" version="1.1" xmlns:xlink="http://www.w3.org/1999/xlink" xmlns:svgjs="http://svgjs.com/svgjs" width="512" height="512" x="0" y="0" viewBox="0 0 512 512" style="enable-background:new 0 0 512 512" xml:space="preserve" class=""><g><path fill="#000000" d="M451.231 9.631H60.769C27.261 9.631 0 36.892 0 70.401V441.6c0 33.508 27.261 60.769 60.769 60.769H451.23c33.508 0 60.769-27.261 60.769-60.769V70.401c.001-33.509-27.26-60.77-60.768-60.77zM478.496 441.6c0 15.034-12.231 27.264-27.265 27.264H60.769c-15.034 0-27.265-12.231-27.265-27.264V70.401c0-15.034 12.231-27.266 27.265-27.266H451.23c15.034 0 27.265 12.232 27.265 27.266V441.6zM200.079 151.789v87.492h128.594c9.252 0 16.752 7.5 16.752 16.752s-7.5 16.752-16.752 16.752H200.079v87.494h128.594c9.252 0 16.752 7.5 16.752 16.752s-7.5 16.752-16.752 16.752H183.327c-9.252 0-16.752-7.5-16.752-16.752V135.037c0-9.252 7.5-16.752 16.752-16.752h145.346c9.252 0 16.752 7.5 16.752 16.752s-7.5 16.752-16.752 16.752z" data-original="#6f69c8" class=""></path></g></svg>