<svg xmlns="http://www.w3.org/2000/svg" version="1.1" xmlns:xlink="http://www.w3.org/1999/xlink" xmlns:svgjs="http://svgjs.com/svgjs" width="512" height="512" x="0" y="0" viewBox="0 0 512 512" style="enable-background:new 0 0 512 512" xml:space="preserve" class=""><g><path fill="#000000" d="M451.238 9.664H60.762C27.257 9.664 0 36.921 0 70.426v371.149c0 33.503 27.257 60.761 60.762 60.761h390.476c33.505 0 60.762-27.257 60.762-60.761V70.426c0-33.505-27.257-60.762-60.762-60.762zM478.5 441.575c0 15.032-12.23 27.261-27.262 27.261H60.762c-15.032 0-27.262-12.229-27.262-27.261V70.426c0-15.032 12.23-27.262 27.262-27.262h390.476c15.032 0 27.262 12.23 27.262 27.262zM256 118.303h-72.697c-9.251 0-16.75 7.499-16.75 16.75v241.962c0 9.251 7.499 16.75 16.75 16.75H256c49.322 0 89.447-40.126 89.447-89.448V207.75c0-49.321-40.125-89.447-89.447-89.447zm55.947 186.015c0 30.849-25.098 55.948-55.947 55.948h-55.947V151.803H256c30.849 0 55.947 25.097 55.947 55.947z" data-original="#24bc99" class=""></path></g></svg>