<svg xmlns="http://www.w3.org/2000/svg" version="1.1" xmlns:xlink="http://www.w3.org/1999/xlink" xmlns:svgjs="http://svgjs.com/svgjs" width="512" height="512" x="0" y="0" viewBox="0 0 512 512" style="enable-background:new 0 0 512 512" xml:space="preserve" class=""><g><path fill="#000000" d="M451.239 9.664H60.761C27.257 9.664 0 36.921 0 70.426v371.15c0 33.503 27.257 60.761 60.761 60.761h390.477c33.504 0 60.761-27.257 60.761-60.761V70.426c.001-33.505-27.256-60.762-60.76-60.762zM478.5 441.575c0 15.032-12.23 27.261-27.261 27.261H60.761c-15.032 0-27.261-12.229-27.261-27.261V70.426c0-15.032 12.23-27.262 27.261-27.262h390.477c15.032 0 27.261 12.23 27.261 27.262v371.149zM288.197 131.034a16.75 16.75 0 0 0-16.26-12.73h-31.873a16.75 16.75 0 0 0-16.261 12.73l-59.812 241.963c-2.22 8.981 3.26 18.061 12.241 20.28 8.979 2.219 18.061-3.26 20.28-12.241l18.663-75.497h81.651l18.663 75.497c1.886 7.631 8.725 12.735 16.248 12.735 1.331 0 2.683-.16 4.032-.494 8.981-2.219 14.461-11.299 12.241-20.28zm-64.742 141.005 29.722-120.236h5.646l29.722 120.236z" data-original="#fe544b" class=""></path></g></svg>