<?xml version="1.0" encoding="iso-8859-1"?>
<!-- Generator: Adobe Illustrator 19.0.0, SVG Export Plug-In . SVG Version: 6.00 Build 0)  -->
<svg version="1.1" id="Layer_1" xmlns="http://www.w3.org/2000/svg" xmlns:xlink="http://www.w3.org/1999/xlink" x="0px" y="0px"
	 viewBox="0 0 511.991 511.991" style="enable-background:new 0 0 511.991 511.991;" xml:space="preserve">
<g>
	<g>
		<path d="M496.421,409.884c0-25.104-105.872-45.454-236.472-45.454S23.477,384.78,23.477,409.884
			c0,11.01,20.369,21.105,54.255,28.971l-24.721,47.965c-4.367,8.474-1.038,18.883,7.435,23.251
			c8.477,4.369,18.885,1.034,23.251-7.435l29.438-57.118c40.333,6.149,91.338,9.821,146.813,9.821s106.48-3.673,146.813-9.821
			l29.438,57.118c4.367,8.474,14.777,11.801,23.251,7.435c8.474-4.367,11.802-14.776,7.435-23.251l-24.721-47.965
			C476.052,430.989,496.421,420.894,496.421,409.884z"/>
	</g>
</g>
<g>
	<g>
		<path d="M472.388,190.87l-138.209-18.185c-6.115-0.805-12.299,0.841-17.206,4.578l-73.517,55.984l62.154-72.317
			c6.685-7.777,16.864-11.625,27.023-10.214l27.449,3.815l80.566-36.682c13.304-6.057,19.177-21.752,13.12-35.054
			c-6.057-13.302-21.752-19.178-35.054-13.12c-3.214,1.463-127.521,58.061-131.253,59.761c-4.49,2.056-8.243,5.751-10.275,10.677
			l-15.107,36.628c-9.589-22.852-9.312-22.195-18.929-45.114l16.176,1.088c2.873-8.682,7.493-15.334,16.338-19.402
			c9.777-4.451,80.184-36.508,89.942-40.951c9.052-8.619,8.402-21.242,1.133-28.879c-7.667-8.056-20.414-8.371-28.47-0.704
			L284.411,94.04l-72.807-4.67c-7.102-0.456-14.216,0.722-20.792,3.444l-86.566,35.821L50.684,69.054
			c-7.435-8.272-20.167-8.947-28.439-1.514c-8.271,7.435-8.949,20.167-1.514,28.439l63.082,70.173
			c5.703,6.344,14.787,8.411,22.683,5.142l91.099-38.37c-3.523,2.575-34.099,24.912-38.337,28.007
			c0.156,0.369,20.515,48.997,39.991,95.515c6.025,14.392,18.426,25.141,33.523,29.075c15.098,3.934,31.185,0.61,43.463-9.016
			l63.438-49.734l125.798,16.578c14.491,1.913,27.787-8.29,29.698-22.782C497.08,206.076,486.88,192.779,472.388,190.87z"/>
	</g>
</g>
<g>
	<g>
		<circle cx="172.372" cy="42.229" r="42.229"/>
	</g>
</g>
<g>
</g>
<g>
</g>
<g>
</g>
<g>
</g>
<g>
</g>
<g>
</g>
<g>
</g>
<g>
</g>
<g>
</g>
<g>
</g>
<g>
</g>
<g>
</g>
<g>
</g>
<g>
</g>
<g>
</g>
</svg>
